<svg xmlns="http://www.w3.org/2000/svg" viewBox="0 0 1600 700" role="img" aria-labelledby="title desc">
  <title id="title">Analytical Benchmark Cover</title>
  <desc id="desc">Geometric benchmark-style visual expressing analytical solutions and residual learning.</desc>
  <defs>
    <linearGradient id="bg" x1="0" y1="0" x2="1" y2="1">
      <stop offset="0%" stop-color="#1d3557"/>
      <stop offset="55%" stop-color="#457b9d"/>
      <stop offset="100%" stop-color="#e9f5ff"/>
    </linearGradient>
    <linearGradient id="line" x1="0" y1="0" x2="1" y2="0">
      <stop offset="0%" stop-color="#f1faee" stop-opacity="0.15"/>
      <stop offset="100%" stop-color="#f1faee" stop-opacity="0.9"/>
    </linearGradient>
  </defs>
  <rect width="1600" height="700" fill="url(#bg)"/>

  <g opacity="0.42">
    <path d="M110 520 L420 280 L730 520 Z" fill="none" stroke="#ffffff" stroke-width="2.5"/>
    <path d="M470 560 L850 250 L1230 560 Z" fill="none" stroke="#ffffff" stroke-width="2.5"/>
    <path d="M980 520 L1260 300 L1520 520 Z" fill="none" stroke="#ffffff" stroke-width="2.5"/>
    <line x1="100" y1="580" x2="1540" y2="580" stroke="#ffffff" stroke-opacity="0.55"/>
  </g>

  <g opacity="0.85">
    <polyline points="140,420 280,370 430,390 560,320 720,340 860,290 1010,325 1160,260 1300,300 1460,240" fill="none" stroke="url(#line)" stroke-width="5"/>
    <polyline points="140,470 280,430 430,445 560,390 720,410 860,360 1010,390 1160,330 1300,365 1460,305" fill="none" stroke="#ffddd2" stroke-width="3" stroke-opacity="0.7"/>
  </g>

  <g>
    <rect x="120" y="84" width="760" height="126" rx="20" fill="#ffffff" fill-opacity="0.09" stroke="#ffffff" stroke-opacity="0.35"/>
    <text x="160" y="140" font-family="Merriweather, serif" font-size="43" fill="#f1faee">Analytical Solutions as Benchmark</text>
    <text x="160" y="179" font-family="Inter, sans-serif" font-size="25" fill="#f1faee" opacity="0.92">Truth • Residuals • Physics-Guided AI</text>
  </g>

  <g opacity="0.9">
    <circle cx="1240" cy="158" r="54" fill="#f1faee" fill-opacity="0.14" stroke="#f1faee" stroke-opacity="0.7"/>
    <line x1="1240" y1="104" x2="1240" y2="212" stroke="#f1faee" stroke-opacity="0.8"/>
    <line x1="1186" y1="158" x2="1294" y2="158" stroke="#f1faee" stroke-opacity="0.8"/>
  </g>
</svg>
