<?xml version="1.0" encoding="UTF-8"?>
<svg xmlns="http://www.w3.org/2000/svg" xmlns:xlink="http://www.w3.org/1999/xlink" width="1280" height="720" viewBox="0 0 1280 720">
<defs>
<g>
<g id="glyph-0-0">
<path d="M 0.550781 0 L 0.550781 -5.367188 L 2.5625 -5.367188 C 2.972656 -5.367188 3.300781 -5.3125 3.550781 -5.207031 C 3.796875 -5.097656 3.992188 -4.929688 4.132812 -4.703125 C 4.273438 -4.476562 4.34375 -4.242188 4.34375 -3.996094 C 4.34375 -3.765625 4.28125 -3.550781 4.15625 -3.347656 C 4.03125 -3.144531 3.84375 -2.980469 3.59375 -2.855469 C 3.917969 -2.761719 4.167969 -2.597656 4.339844 -2.371094 C 4.515625 -2.140625 4.601562 -1.867188 4.601562 -1.554688 C 4.601562 -1.304688 4.550781 -1.070312 4.445312 -0.855469 C 4.335938 -0.640625 4.207031 -0.472656 4.050781 -0.355469 C 3.894531 -0.238281 3.699219 -0.148438 3.460938 -0.0898438 C 3.226562 -0.03125 2.9375 0 2.597656 0 L 0.550781 0 M 1.257812 -3.113281 L 2.421875 -3.113281 C 2.734375 -3.113281 2.960938 -3.132812 3.097656 -3.175781 C 3.277344 -3.230469 3.414062 -3.316406 3.507812 -3.441406 C 3.597656 -3.566406 3.644531 -3.722656 3.644531 -3.910156 C 3.644531 -4.089844 3.601562 -4.246094 3.515625 -4.382812 C 3.429688 -4.515625 3.308594 -4.609375 3.148438 -4.660156 C 2.992188 -4.710938 2.71875 -4.734375 2.332031 -4.734375 L 1.257812 -4.734375 L 1.257812 -3.113281 M 1.257812 -0.632812 L 2.597656 -0.632812 C 2.824219 -0.632812 2.988281 -0.640625 3.078125 -0.660156 C 3.242188 -0.6875 3.378906 -0.738281 3.488281 -0.804688 C 3.601562 -0.875 3.691406 -0.972656 3.761719 -1.105469 C 3.832031 -1.234375 3.867188 -1.386719 3.867188 -1.554688 C 3.867188 -1.757812 3.816406 -1.929688 3.714844 -2.078125 C 3.609375 -2.226562 3.46875 -2.328125 3.285156 -2.390625 C 3.105469 -2.449219 2.84375 -2.480469 2.5 -2.480469 L 1.257812 -2.480469 Z "/>
</g>
<g id="glyph-0-1">
<path d="M 0.25 -1.945312 C 0.25 -2.664062 0.449219 -3.199219 0.851562 -3.546875 C 1.183594 -3.832031 1.589844 -3.976562 2.074219 -3.976562 C 2.609375 -3.976562 3.042969 -3.800781 3.382812 -3.453125 C 3.722656 -3.101562 3.894531 -2.617188 3.894531 -2 C 3.894531 -1.5 3.816406 -1.105469 3.667969 -0.820312 C 3.515625 -0.53125 3.300781 -0.308594 3.011719 -0.148438 C 2.726562 0.0078125 2.410156 0.0859375 2.074219 0.0859375 C 1.527344 0.0859375 1.089844 -0.0859375 0.753906 -0.4375 C 0.417969 -0.785156 0.25 -1.289062 0.25 -1.945312 M 0.925781 -1.945312 C 0.925781 -1.445312 1.035156 -1.074219 1.253906 -0.824219 C 1.46875 -0.578125 1.742188 -0.453125 2.074219 -0.453125 C 2.398438 -0.453125 2.671875 -0.578125 2.890625 -0.828125 C 3.105469 -1.078125 3.214844 -1.457031 3.214844 -1.964844 C 3.214844 -2.449219 3.105469 -2.8125 2.886719 -3.058594 C 2.667969 -3.308594 2.398438 -3.429688 2.074219 -3.429688 C 1.742188 -3.429688 1.46875 -3.308594 1.253906 -3.0625 C 1.035156 -2.816406 0.925781 -2.441406 0.925781 -1.945312 Z "/>
</g>
<g id="glyph-0-2">
<path d="M 0.5 -4.609375 L 0.5 -5.367188 L 1.15625 -5.367188 L 1.15625 -4.609375 L 0.5 -4.609375 M 0.5 0 L 0.5 -3.890625 L 1.15625 -3.890625 L 1.15625 0 Z "/>
</g>
<g id="glyph-0-3">
<path d="M 0.230469 -1.160156 L 0.882812 -1.261719 C 0.917969 -1.003906 1.019531 -0.800781 1.1875 -0.664062 C 1.355469 -0.523438 1.589844 -0.453125 1.890625 -0.453125 C 2.191406 -0.453125 2.417969 -0.515625 2.5625 -0.640625 C 2.710938 -0.761719 2.78125 -0.90625 2.78125 -1.074219 C 2.78125 -1.222656 2.71875 -1.339844 2.589844 -1.425781 C 2.5 -1.484375 2.273438 -1.558594 1.914062 -1.648438 C 1.433594 -1.769531 1.097656 -1.875 0.910156 -1.964844 C 0.722656 -2.054688 0.582031 -2.175781 0.484375 -2.335938 C 0.390625 -2.492188 0.339844 -2.664062 0.339844 -2.855469 C 0.339844 -3.03125 0.378906 -3.191406 0.460938 -3.339844 C 0.539062 -3.484375 0.648438 -3.609375 0.785156 -3.707031 C 0.886719 -3.78125 1.027344 -3.847656 1.203125 -3.898438 C 1.378906 -3.949219 1.570312 -3.976562 1.773438 -3.976562 C 2.078125 -3.976562 2.34375 -3.933594 2.578125 -3.84375 C 2.808594 -3.757812 2.976562 -3.636719 3.085938 -3.488281 C 3.195312 -3.339844 3.273438 -3.136719 3.3125 -2.886719 L 2.667969 -2.796875 C 2.640625 -2.996094 2.554688 -3.152344 2.414062 -3.265625 C 2.273438 -3.378906 2.078125 -3.433594 1.820312 -3.433594 C 1.515625 -3.433594 1.300781 -3.386719 1.171875 -3.285156 C 1.042969 -3.183594 0.976562 -3.066406 0.976562 -2.933594 C 0.976562 -2.847656 1.003906 -2.769531 1.058594 -2.703125 C 1.113281 -2.632812 1.195312 -2.574219 1.3125 -2.527344 C 1.375 -2.503906 1.570312 -2.445312 1.894531 -2.359375 C 2.359375 -2.234375 2.683594 -2.132812 2.871094 -2.050781 C 3.054688 -1.972656 3.199219 -1.859375 3.304688 -1.707031 C 3.40625 -1.554688 3.460938 -1.367188 3.460938 -1.140625 C 3.460938 -0.921875 3.398438 -0.714844 3.269531 -0.523438 C 3.140625 -0.328125 2.957031 -0.175781 2.714844 -0.0703125 C 2.472656 0.0351562 2.199219 0.0859375 1.894531 0.0859375 C 1.386719 0.0859375 1.003906 -0.015625 0.738281 -0.226562 C 0.472656 -0.4375 0.304688 -0.75 0.230469 -1.160156 Z "/>
</g>
<g id="glyph-0-4">
<path d="M 3.15625 -1.253906 L 3.835938 -1.167969 C 3.730469 -0.769531 3.53125 -0.460938 3.242188 -0.242188 C 2.949219 -0.0234375 2.578125 0.0859375 2.128906 0.0859375 C 1.558594 0.0859375 1.109375 -0.0859375 0.773438 -0.4375 C 0.441406 -0.789062 0.273438 -1.277344 0.273438 -1.910156 C 0.273438 -2.566406 0.441406 -3.074219 0.78125 -3.433594 C 1.117188 -3.796875 1.554688 -3.976562 2.089844 -3.976562 C 2.609375 -3.976562 3.035156 -3.800781 3.367188 -3.445312 C 3.695312 -3.09375 3.859375 -2.59375 3.859375 -1.953125 C 3.859375 -1.914062 3.859375 -1.855469 3.855469 -1.777344 L 0.957031 -1.777344 C 0.980469 -1.347656 1.101562 -1.023438 1.320312 -0.792969 C 1.535156 -0.566406 1.804688 -0.453125 2.132812 -0.453125 C 2.375 -0.453125 2.578125 -0.515625 2.75 -0.644531 C 2.921875 -0.769531 3.054688 -0.972656 3.15625 -1.253906 M 0.992188 -2.316406 L 3.164062 -2.316406 C 3.132812 -2.644531 3.050781 -2.890625 2.914062 -3.054688 C 2.703125 -3.308594 2.433594 -3.433594 2.097656 -3.433594 C 1.796875 -3.433594 1.542969 -3.332031 1.335938 -3.132812 C 1.128906 -2.929688 1.015625 -2.65625 0.992188 -2.316406 Z "/>
</g>
<g id="glyph-0-5">
</g>
<g id="glyph-0-6">
<path d="M 0.496094 1.492188 L 0.496094 -3.890625 L 1.09375 -3.890625 L 1.09375 -3.382812 C 1.238281 -3.582031 1.394531 -3.730469 1.574219 -3.828125 C 1.753906 -3.925781 1.96875 -3.976562 2.222656 -3.976562 C 2.554688 -3.976562 2.847656 -3.890625 3.101562 -3.71875 C 3.355469 -3.550781 3.546875 -3.308594 3.675781 -2.996094 C 3.804688 -2.6875 3.871094 -2.34375 3.871094 -1.972656 C 3.871094 -1.574219 3.800781 -1.21875 3.65625 -0.898438 C 3.515625 -0.582031 3.304688 -0.335938 3.035156 -0.167969 C 2.761719 0.00390625 2.476562 0.0859375 2.175781 0.0859375 C 1.957031 0.0859375 1.757812 0.0429688 1.582031 -0.0507812 C 1.410156 -0.144531 1.265625 -0.261719 1.152344 -0.402344 L 1.152344 1.492188 L 0.496094 1.492188 M 1.089844 -1.921875 C 1.089844 -1.421875 1.191406 -1.050781 1.394531 -0.8125 C 1.597656 -0.574219 1.84375 -0.453125 2.132812 -0.453125 C 2.425781 -0.453125 2.675781 -0.578125 2.882812 -0.824219 C 3.09375 -1.074219 3.195312 -1.457031 3.195312 -1.976562 C 3.195312 -2.472656 3.09375 -2.84375 2.890625 -3.089844 C 2.6875 -3.335938 2.445312 -3.460938 2.160156 -3.460938 C 1.878906 -3.460938 1.632812 -3.328125 1.414062 -3.066406 C 1.199219 -2.804688 1.089844 -2.421875 1.089844 -1.921875 Z "/>
</g>
<g id="glyph-0-7">
<path d="M 3.042969 0 L 3.042969 -0.570312 C 2.742188 -0.132812 2.328125 0.0859375 1.808594 0.0859375 C 1.578125 0.0859375 1.367188 0.0429688 1.167969 -0.0429688 C 0.96875 -0.132812 0.820312 -0.242188 0.722656 -0.375 C 0.625 -0.507812 0.558594 -0.671875 0.519531 -0.863281 C 0.492188 -0.992188 0.480469 -1.199219 0.480469 -1.480469 L 0.480469 -3.890625 L 1.140625 -3.890625 L 1.140625 -1.730469 C 1.140625 -1.386719 1.152344 -1.15625 1.179688 -1.035156 C 1.21875 -0.863281 1.308594 -0.726562 1.441406 -0.628906 C 1.578125 -0.527344 1.742188 -0.480469 1.941406 -0.480469 C 2.140625 -0.480469 2.324219 -0.53125 2.496094 -0.632812 C 2.671875 -0.734375 2.792969 -0.871094 2.867188 -1.046875 C 2.9375 -1.21875 2.972656 -1.472656 2.972656 -1.804688 L 2.972656 -3.890625 L 3.632812 -3.890625 L 3.632812 0 Z "/>
</g>
<g id="glyph-0-8">
<path d="M 0.496094 0 L 0.496094 -3.890625 L 1.085938 -3.890625 L 1.085938 -3.34375 C 1.207031 -3.535156 1.367188 -3.6875 1.570312 -3.804688 C 1.773438 -3.917969 2.003906 -3.976562 2.261719 -3.976562 C 2.550781 -3.976562 2.789062 -3.917969 2.972656 -3.796875 C 3.15625 -3.679688 3.285156 -3.511719 3.363281 -3.296875 C 3.667969 -3.75 4.070312 -3.976562 4.5625 -3.976562 C 4.949219 -3.976562 5.246094 -3.871094 5.453125 -3.65625 C 5.660156 -3.441406 5.765625 -3.113281 5.765625 -2.667969 L 5.765625 0 L 5.109375 0 L 5.109375 -2.449219 C 5.109375 -2.714844 5.085938 -2.902344 5.042969 -3.019531 C 5 -3.136719 4.925781 -3.230469 4.8125 -3.300781 C 4.699219 -3.371094 4.566406 -3.40625 4.417969 -3.40625 C 4.144531 -3.40625 3.914062 -3.316406 3.734375 -3.132812 C 3.554688 -2.949219 3.464844 -2.660156 3.464844 -2.257812 L 3.464844 0 L 2.804688 0 L 2.804688 -2.527344 C 2.804688 -2.820312 2.75 -3.039062 2.644531 -3.1875 C 2.535156 -3.332031 2.359375 -3.40625 2.117188 -3.40625 C 1.929688 -3.40625 1.757812 -3.355469 1.601562 -3.257812 C 1.445312 -3.160156 1.332031 -3.019531 1.257812 -2.832031 C 1.1875 -2.644531 1.152344 -2.371094 1.152344 -2.019531 L 1.152344 0 Z "/>
</g>
<g id="glyph-0-9">
<path d="M 0.496094 0 L 0.496094 -3.890625 L 1.085938 -3.890625 L 1.085938 -3.335938 C 1.375 -3.761719 1.785156 -3.976562 2.324219 -3.976562 C 2.558594 -3.976562 2.773438 -3.933594 2.972656 -3.851562 C 3.167969 -3.765625 3.316406 -3.65625 3.414062 -3.519531 C 3.511719 -3.382812 3.578125 -3.21875 3.617188 -3.03125 C 3.640625 -2.910156 3.65625 -2.695312 3.65625 -2.390625 L 3.65625 0 L 2.996094 0 L 2.996094 -2.367188 C 2.996094 -2.632812 2.96875 -2.835938 2.917969 -2.96875 C 2.867188 -3.101562 2.777344 -3.207031 2.644531 -3.285156 C 2.515625 -3.367188 2.363281 -3.40625 2.1875 -3.40625 C 1.90625 -3.40625 1.664062 -3.316406 1.460938 -3.136719 C 1.253906 -2.960938 1.152344 -2.621094 1.152344 -2.125 L 1.152344 0 Z "/>
</g>
<g id="glyph-0-10">
<path d="M 0.375 0.320312 L 1.015625 0.417969 C 1.042969 0.613281 1.117188 0.757812 1.238281 0.851562 C 1.402344 0.972656 1.625 1.03125 1.90625 1.03125 C 2.214844 1.03125 2.449219 0.972656 2.613281 0.851562 C 2.78125 0.726562 2.894531 0.554688 2.953125 0.335938 C 2.984375 0.203125 3 -0.078125 3 -0.507812 C 2.710938 -0.167969 2.351562 0 1.921875 0 C 1.386719 0 0.972656 -0.191406 0.679688 -0.578125 C 0.386719 -0.964844 0.242188 -1.425781 0.242188 -1.964844 C 0.242188 -2.335938 0.308594 -2.679688 0.441406 -2.992188 C 0.578125 -3.308594 0.773438 -3.550781 1.027344 -3.71875 C 1.28125 -3.890625 1.582031 -3.976562 1.925781 -3.976562 C 2.386719 -3.976562 2.761719 -3.792969 3.0625 -3.421875 L 3.0625 -3.890625 L 3.667969 -3.890625 L 3.667969 -0.527344 C 3.667969 0.078125 3.609375 0.507812 3.484375 0.761719 C 3.359375 1.011719 3.164062 1.210938 2.898438 1.359375 C 2.632812 1.503906 2.300781 1.578125 1.910156 1.578125 C 1.449219 1.578125 1.074219 1.472656 0.789062 1.265625 C 0.5 1.054688 0.363281 0.742188 0.375 0.320312 M 0.917969 -2.015625 C 0.917969 -1.503906 1.019531 -1.132812 1.222656 -0.898438 C 1.425781 -0.664062 1.679688 -0.546875 1.984375 -0.546875 C 2.289062 -0.546875 2.542969 -0.664062 2.746094 -0.894531 C 2.953125 -1.128906 3.054688 -1.492188 3.054688 -1.992188 C 3.054688 -2.46875 2.949219 -2.828125 2.738281 -3.070312 C 2.527344 -3.3125 2.273438 -3.429688 1.972656 -3.429688 C 1.679688 -3.429688 1.433594 -3.3125 1.226562 -3.074219 C 1.023438 -2.835938 0.917969 -2.484375 0.917969 -2.015625 Z "/>
</g>
<g id="glyph-0-11">
<path d="M 1.933594 -0.589844 L 2.027344 -0.0078125 C 1.84375 0.03125 1.675781 0.0507812 1.53125 0.0507812 C 1.292969 0.0507812 1.105469 0.0117188 0.972656 -0.0625 C 0.84375 -0.136719 0.75 -0.238281 0.695312 -0.359375 C 0.640625 -0.484375 0.617188 -0.742188 0.617188 -1.140625 L 0.617188 -3.375 L 0.132812 -3.375 L 0.132812 -3.890625 L 0.617188 -3.890625 L 0.617188 -4.851562 L 1.269531 -5.246094 L 1.269531 -3.890625 L 1.933594 -3.890625 L 1.933594 -3.375 L 1.269531 -3.375 L 1.269531 -1.101562 C 1.269531 -0.914062 1.28125 -0.792969 1.304688 -0.738281 C 1.328125 -0.6875 1.367188 -0.644531 1.417969 -0.613281 C 1.472656 -0.578125 1.546875 -0.5625 1.644531 -0.5625 C 1.71875 -0.5625 1.8125 -0.574219 1.933594 -0.589844 Z "/>
</g>
</g>
</defs>
<g fill="rgb(41.960784%, 49.803922%, 50.980392%)" fill-opacity="1">
<use xlink:href="#glyph-0-0" x="30" y="26.790039"/>
<use xlink:href="#glyph-0-1" x="35" y="26.790039"/>
<use xlink:href="#glyph-0-2" x="39" y="26.790039"/>
<use xlink:href="#glyph-0-3" x="41" y="26.790039"/>
<use xlink:href="#glyph-0-4" x="45" y="26.790039"/>
<use xlink:href="#glyph-0-5" x="49" y="26.790039"/>
<use xlink:href="#glyph-0-6" x="51" y="26.790039"/>
<use xlink:href="#glyph-0-7" x="55" y="26.790039"/>
<use xlink:href="#glyph-0-8" x="59" y="26.790039"/>
<use xlink:href="#glyph-0-6" x="65" y="26.790039"/>
<use xlink:href="#glyph-0-2" x="69" y="26.790039"/>
<use xlink:href="#glyph-0-9" x="71" y="26.790039"/>
<use xlink:href="#glyph-0-10" x="75" y="26.790039"/>
<use xlink:href="#glyph-0-5" x="79" y="26.790039"/>
<use xlink:href="#glyph-0-11" x="81" y="26.790039"/>
<use xlink:href="#glyph-0-4" x="83" y="26.790039"/>
<use xlink:href="#glyph-0-3" x="87" y="26.790039"/>
<use xlink:href="#glyph-0-11" x="91" y="26.790039"/>
<use xlink:href="#glyph-0-3" x="93" y="26.790039"/>
</g>
</svg>
